# xmcd
#
# Track frame offsets: 
#        150
#        12518
#        28921
#        42586
#        56630
#        69703
#        82597
#        96013
#        107776
#        119988
#        139427
#        152589
#        166450
#        184248
#        202239
#
# Disc length: 2832 seconds
#
# Revision: 0
# Processed by: cddbd v1.5.1PL2 Copyright (c) Steve Scherf et al.
# Submitted via: ExactAudioCopy v0.95b4
#
DISCID=e10b0e0f
DTITLE=Various Artist - Sorrow Bound 1
DYEAR=2006
DGENRE=Country
TTITLE0=You Win Again - Billy Cowsill 
TTITLE1=I'm So Lonesome I Could Cry - Jane Hawley 
TTITLE2=Long Gone Lonesome Blues - Tom Phillips 
TTITLE3=Lost Highway - Tim Williams 
TTITLE4=There'll Be No Tear Drops Tonight - Stewart MacDougall 
TTITLE5=Jambalaya (On The Bayou) - Jane Hawley 
TTITLE6=Your Cheatin' Heart - Billy Cowsill 
TTITLE7=My Heart Would Know - Stewart MacDougall 
TTITLE8=Lovesick Blues - Tom Phillips 
TTITLE9=Take These Chains From My Heart - Jane Hawley 
TTITLE10=Hey, Good Lookin' - Billy Cowsill 
TTITLE11=On The Banks Of The Old Ponchartrain - Tim Williams 
TTITLE12=Cold, Cold Heart - Tom Phillips 
TTITLE13=Men With Broken Hearts - Stewart MacDougall 
TTITLE14=I Heard That Lonesome Whistle Blow - Tim Williams 
EXTD=
EXTT0=
EXTT1=
EXTT2=
EXTT3=
EXTT4=
EXTT5=
EXTT6=
EXTT7=
EXTT8=
EXTT9=
EXTT10=
EXTT11=
EXTT12=
EXTT13=
EXTT14=
PLAYORDER=
